<svg width="124" height="110" viewBox="0 0 124 110" fill="none" xmlns="http://www.w3.org/2000/svg">
<path d="M49.8 22.0319C52.9 20.7319 54.2 17.0319 52.8 14.0319L47.9 3.73195C46.5 0.832946 43.1 -0.468054 40.1 0.832946C31.6 4.43295 24.3 9.13295 18.5 14.8329C11.4 21.5319 6.6 29.2319 4 37.7319C1.4 46.3329 0 58.0319 0 72.9319V103.632C0 106.932 2.7 109.632 6 109.632H45.3C48.6 109.632 51.3 106.932 51.3 103.632V64.3319C51.3 61.0309 48.6 58.3319 45.3 58.3319H26.5C26.7 48.2309 29.1 40.1319 33.5 34.0309C37.1 29.1329 42.5 25.1329 49.8 22.0319Z" fill="#FF8744" fill-opacity="0.86"/>
<path d="M120.4 22.0318C123.5 20.7318 124.799 17.0318 123.4 14.0318L118.5 3.83284C117.1 0.932841 113.7 -0.367159 110.7 0.932841C102.3 4.53284 95.0992 9.23284 89.2002 14.8328C82.0992 21.6328 77.2002 29.3328 74.5992 37.8328C71.9992 46.2318 70.7002 57.9328 70.7002 72.9328V103.633C70.7002 106.933 73.4002 109.633 76.7002 109.633H116C119.3 109.633 122 106.933 122 103.633V64.3328C122 61.0318 119.3 58.3328 116 58.3328H97.1002C97.3002 48.2318 99.7012 40.1328 104.1 34.0318C107.7 29.1328 113.1 25.1328 120.4 22.0318Z" fill="#FF8744" fill-opacity="0.86"/>
</svg>
